<?xml version="1.0" standalone="no"?>
<!DOCTYPE svg PUBLIC "-//W3C//DTD SVG 20010904//EN"
 "http://www.w3.org/TR/2001/REC-SVG-20010904/DTD/svg10.dtd">
<svg version="1.0" xmlns="http://www.w3.org/2000/svg"
 width="289.000000pt" height="269.000000pt" viewBox="0 0 289.000000 269.000000"
 preserveAspectRatio="xMidYMid meet">

<g transform="translate(0.000000,269.000000) scale(0.100000,-0.100000)"
fill="#000000" stroke="none">
<path d="M849 2209 c-14 -5 -31 -21 -38 -35 -8 -17 -11 -145 -11 -423 0 -387
1 -399 21 -424 l20 -27 247 -2 247 -3 3 -92 3 -93 -46 0 c-33 0 -45 -4 -45
-15 0 -13 30 -15 210 -15 180 0 210 2 210 15 0 11 -12 15 -45 15 l-46 0 3 93
3 92 245 3 c234 2 245 3 267 24 l23 21 0 409 c0 248 -4 417 -10 428 -5 10 -24
23 -41 29 -41 14 -1182 14 -1220 0z m1223 -36 c17 -15 18 -41 18 -419 l0 -403
-22 -15 c-20 -14 -94 -16 -603 -16 -447 0 -586 3 -605 13 l-25 13 -3 404 c-2
403 -2 405 19 423 20 16 64 17 612 17 535 0 592 -2 609 -17z m-522 -968 l0
-95 -90 0 -90 0 0 95 0 95 90 0 90 0 0 -95z"/>
<path d="M1452 1773 c-102 -254 -101 -254 -86 -260 7 -2 48 88 102 224 102
254 101 254 86 260 -7 2 -48 -88 -102 -224z"/>
<path d="M1095 1845 c-71 -41 -131 -80 -133 -87 -2 -9 51 -44 136 -91 138 -76
162 -86 162 -67 0 12 -14 20 -152 97 l-108 59 127 71 c70 39 129 76 131 82 8
24 -39 6 -163 -64z"/>
<path d="M1660 1911 c0 -6 59 -42 131 -82 112 -61 128 -74 112 -83 -10 -5 -67
-38 -127 -71 -102 -57 -137 -85 -104 -85 20 1 291 154 291 165 0 12 -268 165
-289 165 -8 0 -14 -4 -14 -9z"/>
<path d="M602 615 c-29 -24 -30 -24 -35 -4 -5 17 -12 20 -46 17 -50 -4 -59
-22 -13 -26 l32 -3 0 -120 c0 -109 2 -120 18 -117 14 3 18 18 22 102 5 92 7
99 33 122 15 13 39 24 52 24 19 0 24 -6 27 -32 2 -21 8 -33 18 -33 20 0 27 74
8 86 -27 18 -86 10 -116 -16z"/>
<path d="M839 623 c-40 -24 -59 -65 -59 -123 0 -98 54 -147 150 -138 51 5 100
37 100 65 0 20 -19 16 -52 -12 -41 -35 -96 -34 -132 1 -14 15 -26 30 -26 35 0
4 -3 14 -6 23 -5 14 8 16 106 16 l113 0 -6 47 c-7 66 -48 103 -115 103 -26 0
-59 -8 -73 -17z m128 -35 c12 -13 23 -32 25 -43 3 -19 -3 -20 -84 -23 -82 -3
-88 -1 -88 17 0 10 14 31 31 45 39 33 88 35 116 4z"/>
<path d="M1225 630 c-12 -4 -27 -15 -34 -24 -13 -15 -15 -15 -28 4 -10 14 -25
20 -54 20 -46 0 -51 -23 -6 -28 l26 -3 3 -117 c3 -102 5 -117 21 -120 15 -3
17 6 17 87 0 85 2 93 28 121 17 20 40 33 64 37 60 9 68 -4 68 -117 0 -109 6
-121 62 -123 42 -2 47 26 6 31 l-28 3 0 95 c0 87 -2 97 -25 119 -25 26 -78 33
-120 15z"/>
<path d="M1516 608 c-60 -60 -61 -155 -1 -215 29 -29 40 -33 84 -33 41 0 56 5
81 28 57 51 61 166 6 220 -19 19 -38 26 -80 30 -53 4 -57 3 -90 -30z m125 -8
c45 -24 62 -106 34 -160 -49 -95 -165 -51 -165 62 0 41 5 54 29 79 31 30 67
37 102 19z"/>
<path d="M1794 629 c-3 -6 17 -35 46 -64 59 -60 59 -63 -9 -130 -23 -21 -41
-45 -41 -51 0 -31 23 -21 75 33 l56 58 48 -52 c45 -51 81 -68 81 -40 0 7 -22
35 -50 62 -27 27 -50 53 -50 59 0 5 23 33 51 63 46 49 55 73 26 73 -7 0 -33
-24 -60 -52 l-47 -53 -48 53 c-49 52 -65 61 -78 41z"/>
<path d="M2105 630 c-3 -5 17 -34 44 -63 28 -30 51 -58 51 -63 0 -6 -22 -32
-50 -59 -27 -27 -50 -55 -50 -62 0 -29 39 -10 83 42 l48 54 47 -53 c53 -61 70
-72 78 -51 4 9 -14 37 -45 71 -28 30 -51 59 -51 63 0 4 23 29 50 56 54 53 58
62 35 71 -9 4 -33 -14 -65 -48 l-50 -53 -47 53 c-47 52 -66 62 -78 42z"/>
</g>
</svg>
